<mxfile host="app.diagrams.net" modified="2023-08-27T00:17:12.179Z" agent="Mozilla/5.0 (X11; Linux x86_64; rv:109.0) Gecko/20100101 Firefox/116.0" etag="3wAJ1308MinhAJ7wjYDW" version="21.6.9" type="device">
  <diagram name="Page-1" id="bKJ9M7TFCG-FmAOeaJfg">
    <mxGraphModel dx="782" dy="505" grid="1" gridSize="10" guides="1" tooltips="1" connect="1" arrows="1" fold="1" page="1" pageScale="1" pageWidth="850" pageHeight="1100" math="0" shadow="0">
      <root>
        <mxCell id="0" />
        <mxCell id="1" parent="0" />
        <mxCell id="PrT4Ly5hu28b8KY8F8GB-10" style="edgeStyle=orthogonalEdgeStyle;rounded=0;orthogonalLoop=1;jettySize=auto;html=1;exitX=0.5;exitY=1;exitDx=0;exitDy=0;entryX=0.5;entryY=0;entryDx=0;entryDy=0;" parent="1" source="PrT4Ly5hu28b8KY8F8GB-1" target="PrT4Ly5hu28b8KY8F8GB-7" edge="1">
          <mxGeometry relative="1" as="geometry" />
        </mxCell>
        <mxCell id="PrT4Ly5hu28b8KY8F8GB-1" value="Input" style="rounded=1;whiteSpace=wrap;html=1;fillColor=#d5e8d4;strokeColor=#82b366;" parent="1" vertex="1">
          <mxGeometry x="365" y="130" width="120" height="60" as="geometry" />
        </mxCell>
        <mxCell id="uvr8KIe6vEwjdS3AqEYP-4" style="edgeStyle=orthogonalEdgeStyle;rounded=0;orthogonalLoop=1;jettySize=auto;html=1;exitX=0.5;exitY=1;exitDx=0;exitDy=0;entryX=0.5;entryY=0;entryDx=0;entryDy=0;" edge="1" parent="1" source="PrT4Ly5hu28b8KY8F8GB-7" target="uvr8KIe6vEwjdS3AqEYP-2">
          <mxGeometry relative="1" as="geometry" />
        </mxCell>
        <mxCell id="PrT4Ly5hu28b8KY8F8GB-7" value="Resnet block" style="rounded=1;whiteSpace=wrap;html=1;fillColor=#ffcd28;strokeColor=#d79b00;gradientColor=#ffa500;" parent="1" vertex="1">
          <mxGeometry x="365" y="220" width="120" height="60" as="geometry" />
        </mxCell>
        <mxCell id="PrT4Ly5hu28b8KY8F8GB-12" style="edgeStyle=orthogonalEdgeStyle;rounded=0;orthogonalLoop=1;jettySize=auto;html=1;exitX=0.5;exitY=1;exitDx=0;exitDy=0;entryX=0.5;entryY=0;entryDx=0;entryDy=0;" parent="1" source="PrT4Ly5hu28b8KY8F8GB-8" target="PrT4Ly5hu28b8KY8F8GB-9" edge="1">
          <mxGeometry relative="1" as="geometry" />
        </mxCell>
        <mxCell id="PrT4Ly5hu28b8KY8F8GB-8" value="Resnet block" style="rounded=1;whiteSpace=wrap;html=1;fillColor=#ffcd28;strokeColor=#d79b00;gradientColor=#ffa500;" parent="1" vertex="1">
          <mxGeometry x="365" y="400" width="120" height="60" as="geometry" />
        </mxCell>
        <mxCell id="uvr8KIe6vEwjdS3AqEYP-6" style="edgeStyle=orthogonalEdgeStyle;rounded=0;orthogonalLoop=1;jettySize=auto;html=1;exitX=0.5;exitY=1;exitDx=0;exitDy=0;entryX=0.5;entryY=0;entryDx=0;entryDy=0;" edge="1" parent="1" source="PrT4Ly5hu28b8KY8F8GB-9" target="uvr8KIe6vEwjdS3AqEYP-3">
          <mxGeometry relative="1" as="geometry" />
        </mxCell>
        <mxCell id="PrT4Ly5hu28b8KY8F8GB-9" value="Attention block" style="rounded=1;whiteSpace=wrap;html=1;fillColor=#ffcd28;strokeColor=#d79b00;gradientColor=#ffa500;" parent="1" vertex="1">
          <mxGeometry x="365" y="490" width="120" height="60" as="geometry" />
        </mxCell>
        <mxCell id="PrT4Ly5hu28b8KY8F8GB-13" value="Output" style="rounded=1;whiteSpace=wrap;html=1;fillColor=#dae8fc;strokeColor=#6c8ebf;" parent="1" vertex="1">
          <mxGeometry x="365" y="670" width="120" height="60" as="geometry" />
        </mxCell>
        <mxCell id="uvr8KIe6vEwjdS3AqEYP-5" style="edgeStyle=orthogonalEdgeStyle;rounded=0;orthogonalLoop=1;jettySize=auto;html=1;exitX=0.5;exitY=1;exitDx=0;exitDy=0;entryX=0.5;entryY=0;entryDx=0;entryDy=0;" edge="1" parent="1" source="uvr8KIe6vEwjdS3AqEYP-2" target="PrT4Ly5hu28b8KY8F8GB-8">
          <mxGeometry relative="1" as="geometry" />
        </mxCell>
        <mxCell id="uvr8KIe6vEwjdS3AqEYP-2" value="Attention block" style="rounded=1;whiteSpace=wrap;html=1;fillColor=#ffcd28;strokeColor=#d79b00;gradientColor=#ffa500;" vertex="1" parent="1">
          <mxGeometry x="365" y="310" width="120" height="60" as="geometry" />
        </mxCell>
        <mxCell id="uvr8KIe6vEwjdS3AqEYP-7" style="edgeStyle=orthogonalEdgeStyle;rounded=0;orthogonalLoop=1;jettySize=auto;html=1;exitX=0.5;exitY=1;exitDx=0;exitDy=0;entryX=0.5;entryY=0;entryDx=0;entryDy=0;" edge="1" parent="1" source="uvr8KIe6vEwjdS3AqEYP-3" target="PrT4Ly5hu28b8KY8F8GB-13">
          <mxGeometry relative="1" as="geometry" />
        </mxCell>
        <mxCell id="uvr8KIe6vEwjdS3AqEYP-3" value="Resnet block" style="rounded=1;whiteSpace=wrap;html=1;fillColor=#ffcd28;strokeColor=#d79b00;gradientColor=#ffa500;" vertex="1" parent="1">
          <mxGeometry x="365" y="580" width="120" height="60" as="geometry" />
        </mxCell>
      </root>
    </mxGraphModel>
  </diagram>
</mxfile>
